<?xml version="1.0" standalone="no"?>
<!DOCTYPE svg PUBLIC "-//W3C//DTD SVG 20010904//EN"
 "http://www.w3.org/TR/2001/REC-SVG-20010904/DTD/svg10.dtd">
<svg version="1.0" xmlns="http://www.w3.org/2000/svg"
 width="200.000000pt" height="200.000000pt" viewBox="0 0 200.000000 200.000000"
 preserveAspectRatio="xMidYMid meet">
<metadata>
Created by potrace 1.14, written by Peter Selinger 2001-2017
</metadata>
<g transform="translate(0.000000,200.000000) scale(0.100000,-0.100000)"
fill="#000000" stroke="none">
<path d="M518 1574 c-52 -12 -158 -58 -158 -68 0 -2 44 -28 97 -56 184 -98
325 -220 414 -358 l47 -73 12 68 c18 92 43 163 89 249 l39 72 -21 20 c-33 30
-126 86 -184 110 -119 50 -229 62 -335 36z"/>
<path d="M1324 1526 c-108 -35 -222 -154 -275 -287 -34 -86 -46 -132 -89 -349
-23 -113 -53 -238 -66 -279 -14 -40 -23 -76 -20 -78 3 -3 47 15 99 40 250 118
340 227 448 542 27 81 57 161 65 178 29 57 86 127 122 152 l36 24 -69 32 c-79
37 -183 48 -251 25z"/>
<path d="M464 685 c-25 -38 -94 -203 -94 -225 0 -22 44 -38 131 -47 107 -11
235 48 289 133 29 46 66 141 58 149 -2 2 -28 -2 -58 -10 -75 -20 -133 -19
-225 5 -43 11 -80 20 -81 20 -2 0 -11 -11 -20 -25z"/>
</g>
</svg>
